<svg xmlns="http://www.w3.org/2000/svg" viewBox="0 0 512 512">
  <defs>
    <linearGradient id="grad1" x1="0%" y1="0%" x2="100%" y2="100%">
      <stop offset="0%" style="stop-color:#0f62fe;stop-opacity:1" />
      <stop offset="100%" style="stop-color:#0043ce;stop-opacity:1" />
    </linearGradient>
  </defs>
  <rect width="512" height="512" rx="100" fill="url(#grad1)"/>
  <path fill="#ffffff" d="M376 160H136c-13.2 0-24 10.8-24 24v208c0 13.2 10.8 24 24 24h240c13.2 0 24-10.8 24-24V184c0-13.2-10.8-24-24-24zm-16 216H152V184h208v192zm-40-144H264v32h56v-32zm-72 0h-56v32h56v-32zm72 64H264v32h56v-32zm-72 0h-56v32h56v-32z"/>
  <path fill="#ffffff" d="M256 64C150 64 64 150 64 256s86 192 192 192 192-86 192-192S362 64 256 64zm0 352c-88.4 0-160-71.6-160-160S167.6 96 256 96s160 71.6 160 160-71.6 160-160 160z" opacity="0.1"/>
</svg>
